<svg xmlns="http://www.w3.org/2000/svg" style="fill: rgba(138, 147, 155, 0.75);" class="BackedBy--logo" viewBox="0 0 135 32"><path class="st1" d="M70.8,19.6c-3.4,0-6.1,2.6-6.1,6.1s2.8,6.1,6.1,6.1c3.4,0,6.1-2.7,6.1-6.1C76.9,22.2,74.2,19.6,70.8,19.6z M70.8,22c2.1,0,3.6,1.5,3.6,3.7c0,2.1-1.6,3.7-3.6,3.7c-2.1,0-3.6-1.5-3.6-3.7C67.1,23.6,68.7,22,70.8,22z M121.6,27.9v-5.6h2.9 v-2.4h-2.9v-3.3l-2.5,0.8v2.5H117v2.4h2.1v5.6c0,3,1.5,4.1,5.4,3.6v-2.2C122.6,29.4,121.6,29.4,121.6,27.9z M134.6,29.2h-5.7 l5.7-6.9V20h-8.9v2.3h5.7l-5.7,6.9v2.4h8.9V29.2L134.6,29.2z M84,19.7v2.7c-1.7-0.1-3.6,0.6-3.6,3.3v5.8h-2.5V19.9h2.5v1.9 C81.1,20.3,82.5,19.7,84,19.7z M90,19.6c-3.4,0-6.1,2.6-6.1,6.1s2.8,6.1,6.1,6.1c3.4,0,6.1-2.7,6.1-6.1 C96.2,22.2,93.5,19.6,90,19.6z M90,22c2.1,0,3.6,1.5,3.6,3.7c0,2.1-1.6,3.7-3.6,3.7c-2.1,0-3.6-1.5-3.6-3.7C86.4,23.6,88,22,90,22z M112.7,19.9L109,31.6h-2.4l-2.4-7.8l-2.4,7.8h-2.4l-3.7-11.6h2.6l2.2,8l2.4-8h2.4l2.4,8l2.2-8H112.7L112.7,19.9z M116,19.9h-2.5 v11.6h2.5V19.9L116,19.9z M34.5,1.7v4.8c-1-0.7-2.3-1.3-3.6-1.3c-3.6,0-6.5,3.1-6.1,6.8c0.3,2.8,2.6,5.1,5.5,5.5 c1.6,0.1,3.1-0.3,4.2-1.2v0.9H37V1L34.5,1.7z M34.4,11.4c0,2.2-2.1,4-4.4,3.5c-1.3-0.3-2.4-1.3-2.8-2.8c-0.4-2.3,1.3-4.4,3.6-4.4 C32.8,7.8,34.4,9.4,34.4,11.4L34.4,11.4z M9.7,5.7v0.8c-1-0.7-2.2-1.2-3.5-1.2c-3.6,0-6.5,3.1-6.1,6.8c0.3,2.8,2.6,5.1,5.5,5.5 c1.6,0.1,3.1-0.3,4.2-1.2v0.9h2.6V5.7H9.7L9.7,5.7z M9.7,11.4c0,2.2-2.1,4-4.4,3.5c-1.3-0.3-2.4-1.3-2.8-2.8 C2.1,9.8,3.9,7.8,6.1,7.8C8.1,7.8,9.7,9.4,9.7,11.4z M19.4,5.3c-1.6,0-2.8,0.6-3.6,1.8V5.6h-2.5v11.6h2.5V11c0-2.4,1.3-3.3,3-3.3 c1.6,0,2.6,0.9,2.6,2.7v6.9h2.5v-7.1C23.9,7.1,22,5.3,19.4,5.3z M66.1,13.8c-0.6,0.8-1.6,1.4-3,1.4c-1.9,0-3.3-0.9-3.7-2.8h9.3 c0.1-0.3,0.1-0.7,0.1-1c0-3.3-2.4-6.1-5.8-6.1c-3.7,0-6.1,2.7-6.1,6.1c0,3.5,2.5,6.1,6.3,6.1c2.2,0,4-1,5.1-2.5L66.1,13.8 L66.1,13.8z M62.9,7.6c1.5,0,3,0.8,3.3,2.8h-6.9C59.7,8.7,61,7.6,62.9,7.6z M94.8,15.3c1.4,0,2.4-0.6,3-1.4l2.1,1.2 c-1.1,1.6-2.8,2.5-5.1,2.5c-3.9,0-6.3-2.6-6.3-6.1c0-3.5,2.5-6.1,6.1-6.1c3.5,0,5.8,2.8,5.8,6.1c0,0.1,0,0.3-0.1,0.5 c0,0.2-0.1,0.3-0.1,0.5h-9.3C91.5,14.3,93,15.3,94.8,15.3L94.8,15.3z M97.9,10.5c-0.3-2-1.8-2.8-3.3-2.8c-1.9,0-3.1,1.1-3.5,2.8 H97.9z M116,17.3h-2.5V15h2.5V17.3z M101.7,17.3h2.5v-6.2c0-2.4,1.3-3.3,3-3.3c1.5,0,2.6,1,2.6,2.7v6.8h2.5v-7.1 c0-3-1.9-4.8-4.4-4.8c-1.6,0-2.8,0.6-3.6,1.8V5.7h-2.5V17.3L101.7,17.3z M72,8.9c0-0.8,0.8-1.2,1.7-1.2c0.9,0,1.7,0.4,2.1,1.2 L78,7.7c-0.8-1.5-2.4-2.4-4.3-2.4c-2.4,0-4.2,1.3-4.2,3.5c0,2.4,2.1,3,3.9,3.5h0.1c0.1,0,0.1,0.1,0.2,0.1c1.2,0.4,2.1,0.6,2.1,1.5 c0,0.9-0.8,1.3-2,1.3c-1.1,0-2-0.4-2.4-1.3L69,15c0.8,1.5,2.4,2.5,4.6,2.5c2.5,0,4.6-1.3,4.6-3.6c0-2.5-2.2-3.1-3.9-3.6 C73.1,10,72,9.7,72,8.9L72,8.9z M81.7,8.9c0-0.8,0.8-1.2,1.7-1.2c0.9,0,1.7,0.4,2.2,1.2l2.2-1.1c-0.8-1.5-2.4-2.4-4.3-2.4 c-2.4,0-4.2,1.3-4.2,3.5c0,2.4,2.1,3,3.9,3.5h0.2c1.2,0.4,2.2,0.7,2.2,1.5c0,0.9-0.9,1.3-2,1.3c-1.2,0-2-0.4-2.4-1.3l-2.2,1.1 c0.8,1.5,2.4,2.5,4.6,2.5c2.6,0,4.6-1.3,4.6-3.6c0-2.5-2.1-3.1-3.9-3.6H84c-0.1,0-0.2-0.1-0.3-0.1C82.6,10,81.7,9.7,81.7,8.9 L81.7,8.9z M44.2,8.2V5.5c-1.5,0-2.9,0.6-3.6,2.1V5.7h-2.5v11.6h2.5v-5.8C40.6,8.8,42.5,8,44.2,8.2L44.2,8.2z M55.7,15v6.4 c0.8-1.2,2-1.8,3.6-1.8c2.6,0,4.4,1.7,4.4,4.8v7.2h-2.5v-6.9c0-1.7-1-2.7-2.6-2.7c-1.7,0-3,1-3,3.3v6.2h-2.5V17.1 c-0.8,0.3-1.6,0.5-2.6,0.5c-3.9,0-6.3-2.6-6.3-6.1c0-3.5,2.5-6.1,6.1-6.1c3.5,0,5.8,2.8,5.8,6.1c0,0.1,0,0.3-0.1,0.5 c0,0.2-0.1,0.3-0.1,0.5h-9.3c0.4,1.8,1.9,2.8,3.7,2.8c1.1,0,1.9-0.4,2.6-0.9c0.2-0.1,0.3-0.3,0.4-0.5L55.7,15L55.7,15z M53.7,10.5 c-0.4-2-1.8-2.8-3.3-2.8c-1.9,0-3.1,1.1-3.5,2.8H53.7L53.7,10.5z"></path></svg>