<svg class="BackedBy--logo" style="fill: rgba(138, 147, 155, 0.75);" id="Layer_1" version="1.1" viewBox="0 0 126 25" x="0px" xml:space="preserve" xmlns="http://www.w3.org/2000/svg" y="0px"><g><path d="M32.9,7.9L20.1,0.5l-1.6,0.9v1.8l-1.6-0.9l-1.6,0.9v1.8l-1.6-0.9l-1.6,0.9v14.8l1.6,0.9l1.6-0.9v1.8l1.6,0.9 l1.6-0.9v1.8l1.6,0.9l12.8-7.4v-1.8l-1.6-0.9l1.6-0.9v-1.8l-1.6-0.9l1.6-0.9V7.9z M15.3,18L13.7,19V6L15.3,7V18z M20.1,19v-1.8 l6.4-3.7l1.6,0.9L20.1,19z M24.9,12.5l-4.8,2.8V9.7L24.9,12.5z M26.5,11.6l-6.4-3.7V6l8,4.6L26.5,11.6z M16.9,4.2l1.6,0.9V7L16.9,6 V4.2z M16.9,7.9l1.6,0.9v7.4l-1.6,0.9V7.9z M16.9,19l1.6-0.9v1.8l-1.6,0.9V19z M31.3,16.2l-11.2,6.5v-1.8l9.6-5.5L31.3,16.2z M31.3,12.5l-1.6,0.9l-1.6-0.9l1.6-0.9L31.3,12.5z M29.7,9.7l-9.6-5.5V2.3l11.2,6.5L29.7,9.7L29.7,9.7z"></path><path d="M39.5,19h-1.8V6h5.6c2.6,0,4.2,1.6,4.2,3.9s-1.6,3.9-4.2,3.9h-3.8L39.5,19L39.5,19z M45.6,9.9 c0-1.3-0.7-2.3-2.3-2.3h-3.8v4.6h3.8C44.9,12.2,45.6,11.2,45.6,9.9z M48.1,11.9c0.2-1.5,1.5-2.8,4.1-2.8c1.6,0,2.9,0.4,3.6,1.6 c0.3,0.5,0.5,1.2,0.5,1.9V19h-1.8v-1.2c-0.6,0.7-1.7,1.5-3.2,1.5c-2,0-3.6-1-3.6-3.1c0-1.7,1.1-2.8,3.5-3l3.3-0.3v-0.2 c0-1.3-0.6-2.1-2.3-2.1c-1.4,0-2.2,0.6-2.3,1.4L48.1,11.9L48.1,11.9z M54.5,14.8v-0.7l-3.1,0.3c-1.3,0.1-1.9,0.7-1.9,1.8 c0,1.3,0.9,1.8,2,1.8C53.1,17.9,54.5,16.7,54.5,14.8L54.5,14.8z M61.8,10.8c-1.3,0-2.1,0.7-2.1,2.4V19h-1.8V9.4h1.8v1.1 c0.5-0.8,1.2-1.3,2.6-1.3h0.5v1.7L61.8,10.8L61.8,10.8z M63.3,11.9c0.2-1.5,1.5-2.8,4.1-2.8c1.6,0,2.9,0.4,3.6,1.6 c0.3,0.5,0.5,1.2,0.5,1.9V19h-1.8v-1.2c-0.6,0.7-1.7,1.5-3.2,1.5c-2,0-3.6-1-3.6-3.1c0-1.7,1.1-2.8,3.5-3l3.3-0.3v-0.2 c0-1.3-0.6-2.1-2.3-2.1c-1.4,0-2.2,0.6-2.3,1.4L63.3,11.9L63.3,11.9z M69.6,14.8v-0.7l-3.1,0.3c-1.3,0.1-1.9,0.7-1.9,1.8 c0,1.3,0.9,1.8,2,1.8C68.3,17.9,69.6,16.7,69.6,14.8L69.6,14.8z M80.1,17.7c-0.6,0.9-1.7,1.6-3.1,1.6c-2.9,0-4.4-2.3-4.4-5.1 s1.6-5.1,4.4-5.1c1.5,0,2.6,0.6,3.1,1.6V6h1.8V19h-1.8L80.1,17.7L80.1,17.7z M77.3,10.6c-1.9,0-3,1.6-3,3.6s1,3.6,3,3.6 c1.9,0,3-1.7,3-3.6C80.2,12.2,79.2,10.6,77.3,10.6z M88.7,17.5V19H83v-1.5h2v-6.6h-2V9.4h3.7v8.1L88.7,17.5L88.7,17.5z M86.8,7.9 H85V6h1.8V7.9z M96.2,17.5c-0.4,0.6-1.4,1.4-3,1.4c-2.7,0-4.4-2.2-4.4-4.9s1.8-4.9,4.4-4.9c1.7,0,2.7,0.8,3,1.4V9.4H98v8.6 c0,3-1.8,4.6-4.5,4.6c-2.1,0-3.7-1.1-4.1-2.8h1.8c0.2,0.7,0.8,1.4,2.2,1.4c2,0,2.8-1.3,2.8-3.2L96.2,17.5L96.2,17.5z M93.3,10.6 c-1.8,0-2.9,1.6-2.9,3.4c0,1.8,1.1,3.4,2.9,3.4c1.8,0,3-1.6,3-3.4C96.3,12.1,95.2,10.6,93.3,10.6L93.3,10.6z M101.4,10.5 c0.6-1,1.7-1.4,2.8-1.4c1.3,0,2.5,0.6,3,1.7c0.6-1,1.6-1.7,3.2-1.7c2,0,3.5,1.2,3.5,3.6V19h-1.8v-6c0-1.6-0.6-2.4-2.1-2.4 c-1.2,0-2.4,0.7-2.4,2.7V19h-1.8v-6c0-1.6-0.6-2.4-2.1-2.4c-1.2,0-2.4,0.7-2.4,2.7V19h-1.8V9.4h1.8L101.4,10.5L101.4,10.5z"></path></g></svg>