<svg xmlns="http://www.w3.org/2000/svg" style="fill: rgba(138, 147, 155, 0.75);" class="BackedBy--logo" viewBox="0 0 206 15"><path d="M2.3,2.1v4.2H8v1.9H2.3v6.1H0v-14h9.5V2L2.3,2.1z M22.2,0.2c1.3,0,1.9,0.2,2.5,0.6C25.4,1.5,26,2.5,26,7.2 c0,4.7-0.6,5.7-1.3,6.4c-0.6,0.4-1,0.6-2.5,0.6h-4.2c-1.3,0-1.9-0.2-2.5-0.6c-0.8-0.8-1.3-1.7-1.3-6.4c0-4.7,0.6-5.7,1.3-6.4 c0.6-0.4,1-0.6,2.5-0.6H22.2z M17.1,12.2c0.2,0.2,0.4,0.2,1.1,0.2H22c0.8,0,1,0,1.1-0.2c0.2-0.2,0.6-0.8,0.6-4.9 c0-4-0.4-4.8-0.6-4.9c-0.2-0.2-0.4-0.2-1.1-0.2h-3.8c-0.8,0-1,0-1.1,0.2c-0.2,0.2-0.6,0.8-0.6,4.9C16.7,11.2,16.9,12,17.1,12.2z M43.5,8.4c0,3.6-0.4,4.2-1.1,4.9c-0.8,0.6-1.7,0.8-3.6,0.8h-2.1c-1.9,0-2.8-0.2-3.6-0.8c-0.8-0.8-1.1-1.5-1.1-4.9V0.2h2.3v8.7 c0,2.5,0.2,2.8,0.6,3.1c0.2,0.2,0.6,0.4,2.3,0.4h1.3c1.5,0,1.9,0,2.3-0.4c0.4-0.4,0.4-0.4,0.4-3.1V0.2h2.3L43.5,8.4L43.5,8.4z M61.7,14.3h-2.5c-0.6,0-0.8-0.2-1.1-0.6L52.4,3.2h-0.4v11h-2.3v-14h2.7c0.6,0,0.8,0.2,1.1,0.6l5.5,9.9h0.4V0h2.3L61.7,14.3 L61.7,14.3z M74.6,0.2c1.7,0,2.8,0.2,3.6,1c1,0.8,1.5,2.7,1.5,6.1c0,3.4-0.4,5.1-1.5,6.1c-0.8,0.8-1.7,1-3.6,1h-6.4v-14H74.6z M76.3,2.5c-0.4-0.4-1-0.4-1.7-0.4h-4v10.2h4c1,0,1.3,0,1.7-0.4c0.6-0.6,0.8-1.5,0.8-4.6C77.3,4,76.9,3.1,76.3,2.5z M95.5,14.3H85.4 v-14h10.1v1.9h-7.8v3.8h6.4v1.9h-6.4v4.3h7.8V14.3z M109.4,8.7c-0.2-0.2-0.8-0.2-1.5-0.2h-4.2v5.9h-2.3v-14h8c1,0,1.7,0.2,2.1,0.6 c0.6,0.6,1,1.3,1,3.4c0,2.5-0.8,3.2-2.5,3.4c1.5,0.2,2.1,0.6,2.3,2.7c0,1.9,0.2,3.2,0.2,4h-2.3c-0.2-1-0.2-2.3-0.2-3.8 C109.7,9.3,109.5,8.9,109.4,8.7z M108.6,6.6c0.6,0,0.8-0.2,1-0.2c0.2-0.2,0.4-0.6,0.4-2.1c0-1.5-0.2-1.9-0.4-2.1 c-0.2-0.2-0.4-0.2-1-0.2h-4.9v4.6L108.6,6.6z M128.3,13.7c-0.4,0.4-1.1,0.6-2.3,0.6h-4.9c-1.1,0-1.9-0.2-2.3-0.6 c-0.6-0.6-0.8-1.3-0.8-3.8h2.3c0,1.7,0.2,2.1,0.2,2.3c0.2,0.2,0.4,0.2,1,0.2h4.2c0.6,0,0.8,0,1-0.2c0.2-0.2,0.2-0.8,0.2-1.9 c0-1,0-1.3-0.2-1.5c-0.2-0.2-0.4-0.2-1-0.2l-4.6-0.4c-1.1-0.2-1.7-0.4-2.1-0.8c-0.6-0.6-0.8-1.1-0.8-3.1c0-1.9,0.2-2.7,1-3.4 c0.4-0.4,1.1-0.6,2.3-0.6h4.6c1.1,0,1.9,0.2,2.3,0.6c0.6,0.6,0.8,1.1,0.8,3.8h-2.3c0-1.7-0.2-2.1-0.2-2.1c-0.2-0.2-0.4-0.2-1-0.2 h-3.8c-0.6,0-0.8,0-1,0.2c-0.2,0.2-0.2,0.8-0.2,1.9c0,1,0,1.3,0.2,1.5c0.2,0.2,0.4,0.2,1,0.2l4.6,0.4c1,0,1.7,0.2,2.1,0.8 c0.6,0.6,0.8,1.1,0.8,3.2C129.3,12.2,129.1,12.9,128.3,13.7z M145.2,2.1v4.2h5.7v1.9h-5.7v6.1h-2.3v-14h9.5V2L145.2,2.1z M169.3,8.4 c0,3.6-0.4,4.2-1.1,4.9c-0.8,0.6-1.7,0.8-3.6,0.8h-2.1c-1.9,0-2.8-0.2-3.6-0.8c-0.8-0.8-1.1-1.5-1.1-4.9V0.2h2.3v8.7 c0,2.5,0.2,2.8,0.6,3.1c0.2,0.2,0.6,0.4,2.3,0.4h1.3c1.5,0,1.9,0,2.3-0.4c0.4-0.4,0.4-0.4,0.4-3.1V0.2h2.3L169.3,8.4L169.3,8.4z M187.6,14.3h-2.5c-0.6,0-0.8-0.2-1.1-0.6l-5.7-10.4h-0.4v11h-2.3v-14h2.7c0.6,0,0.8,0.2,1.1,0.6l5.5,9.9h0.4V0h2.3L187.6,14.3 L187.6,14.3z M200.5,0.2c1.7,0,2.8,0.2,3.6,1c1,0.8,1.5,2.7,1.5,6.1c0,3.4-0.4,5.1-1.5,6.1c-0.8,0.8-1.7,1-3.6,1H194v-14H200.5z M202.2,2.5c-0.4-0.4-1-0.4-1.7-0.4h-4v10.2h4c1,0,1.3,0,1.7-0.4c0.6-0.6,0.8-1.5,0.8-4.6C202.9,4,202.7,3.1,202.2,2.5z"></path></svg>