<svg xmlns="http://www.w3.org/2000/svg" style="fill: rgba(138, 147, 155, 0.75);" class="BackedBy--logo" viewBox="0 0 118 25"><path d="M0,0.2h4.2c1.1,0,1.7,0.2,2.3,0.8C6.8,1.3,7,1.8,7,2.3c0,1-0.5,1.6-1.3,1.9c1,0.3,1.6,0.9,1.6,2.1 c0,1.5-1.1,2.4-3.1,2.4H0V0.2z M3.6,3.6c0.7,0,1.1-0.2,1.1-0.7c0-0.5-0.4-0.7-1.1-0.7H2.2v1.5L3.6,3.6L3.6,3.6z M3.9,6.9 C4.6,6.9,5,6.6,5,6.1c0-0.5-0.4-0.8-1.1-0.8H2.1v1.6L3.9,6.9L3.9,6.9z M12.6,0.2h2.3v6.5h3.9v2.1h-6.2V0.2z M23.3,4.5 c0-2.4,1.9-4.5,4.4-4.5c2.5,0,4.4,2,4.4,4.4c0,2.4-1.9,4.4-4.4,4.4C25.2,8.9,23.3,6.9,23.3,4.5z M29.9,4.5c0-1.2-0.8-2.4-2.1-2.4 c-1.2,0-2,1-2,2.3c0,1.2,0.8,2.3,2.1,2.3C29,6.8,29.9,5.7,29.9,4.5z M37.3,4.5C37.3,2,39.1,0,41.6,0c1.7,0,2.7,0.7,3.5,1.8l-1.7,1.3 c-0.5-0.6-1-1-1.8-1c-1.1,0-2,1-2,2.3c0,1.2,0.8,2.3,2,2.3c0.8,0,1.4-0.4,1.8-1l1.7,1.2c-0.8,1.1-1.8,1.9-3.6,1.9 C39.2,8.9,37.3,7.1,37.3,4.5z M50.5,0.2h2.3v3.5l2.8-3.5h2.7l-3.1,3.7l3.2,4.9h-2.7l-2-3.2l-0.8,0.9v2.2h-2.3V0.2z M62.3,4.5 C62.3,2,64.1,0,66.6,0c1.7,0,2.7,0.7,3.5,1.8l-1.7,1.3c-0.5-0.6-1-1-1.8-1c-1.1,0-2,1-2,2.3c0,1.2,0.8,2.3,2,2.3 c0.8,0,1.4-0.4,1.8-1l1.7,1.2c-0.8,1.1-1.8,1.9-3.6,1.9C64.2,8.9,62.3,7.1,62.3,4.5z M75.4,0.2h2.3v3.2h2.9V0.2h2.3v8.5h-2.3V5.5 h-2.9v3.2h-2.3V0.2z M91.4,0.2h2.2l3.5,8.6h-2.4l-0.6-1.5h-3.2l-0.6,1.5h-2.4L91.4,0.2z M93.4,5.4l-0.9-2.4l-0.9,2.4H93.4z M102.1,0.2h2.3v8.5h-2.3V0.2z M110.2,0.2h2.1l3.4,4.5V0.2h2.3v8.5h-2l-3.5-4.6v4.6h-2.3L110.2,0.2L110.2,0.2z M0.1,20.7 c0-2.4,1.7-4.4,4.2-4.4c1.5,0,2.3,0.6,3.2,1.3l-0.6,0.7c-0.8-0.7-1.5-1.2-2.6-1.2c-1.8,0-3.2,1.5-3.2,3.5s1.4,3.6,3.2,3.6 c1.1,0,1.9-0.5,2.6-1.2l0.6,0.6C6.6,24.4,5.6,25,4.2,25C1.8,25.1,0.1,23.1,0.1,20.7z M16.4,16.3h0.8l3.7,8.6h-1l-1-2.3h-4.5l-1,2.3 h-1L16.4,16.3z M18.7,21.8l-1.9-4.3l-1.9,4.3H18.7z M26.8,16.4h3c1.8,0,3,1,3,2.7c0,1.8-1.4,2.7-3.3,2.7h-2v3h-0.9L26.8,16.4 L26.8,16.4L26.8,16.4z M29.8,21.1c1.4,0,2.3-0.8,2.3-1.9c0-1.2-0.9-1.8-2.2-1.8h-2v3.8L29.8,21.1L29.8,21.1L29.8,21.1z M39,16.4h0.9 v8.5H39V16.4z M48.7,17.3H46v-0.9h6.5v0.9h-2.7v7.6h-0.9L48.7,17.3L48.7,17.3z M60.4,16.3h0.8l3.7,8.6h-1l-1-2.3h-4.5l-1,2.3h-1 L60.4,16.3z M62.7,21.8l-1.9-4.3l-1.9,4.3H62.7z M70.8,16.4h0.9v7.6h4.6v0.9h-5.6L70.8,16.4L70.8,16.4z"></path></svg>