<svg width="100" height="100" viewBox="0 0 100 100" fill="none" xmlns="http://www.w3.org/2000/svg">
<circle cx="50" cy="50" r="49.5" fill="#04111D" stroke="#353840"/>
<path d="M29.7481 62.1062C30.1101 61.74 30.608 61.5263 31.1359 61.5263H79.0164C79.8914 61.5263 80.3288 62.5946 79.7103 63.2202L70.2519 72.7885C69.8899 73.1548 69.3921 73.3684 68.8641 73.3684H20.9836C20.1086 73.3684 19.6712 72.3002 20.2897 71.6745L29.7481 62.1062Z" fill="#2BCDE4"/>
<path d="M29.7481 26.5799C30.1252 26.2136 30.623 26 31.1359 26H79.0164C79.8914 26 80.3288 27.0682 79.7103 27.6939L70.2519 37.2622C69.8899 37.6285 69.3921 37.8421 68.8641 37.8421H20.9836C20.1086 37.8421 19.6712 36.7739 20.2897 36.1482L29.7481 26.5799Z" fill="#2BCDE4"/>
<path d="M70.2519 43.9483C69.8899 43.5821 69.3921 43.3684 68.8641 43.3684H20.9836C20.1086 43.3684 19.6712 44.4367 20.2897 45.0623L29.7481 54.6306C30.1101 54.9969 30.608 55.2105 31.1359 55.2105H79.0164C79.8914 55.2105 80.3288 54.1423 79.7103 53.5166L70.2519 43.9483Z" fill="#1868B7"/>
</svg>
