<svg width="128" height="128" viewBox="0 0 128 128" fill="none" xmlns="http://www.w3.org/2000/svg">
<g filter="url(#filter0_i_1317_8504)">
<rect width="128" height="128" rx="40" fill="url(#paint0_radial_1317_8504)"/>
</g>
<g filter="url(#filter1_d_1317_8504)">
<path fill-rule="evenodd" shape-rendering="geometricPrecision" clip-rule="evenodd" d="M95.5585 96.079C87.4365 104.07 76.294 109 64 109C51.7331 109 40.6125 104.092 32.4952 96.1318C50.9239 81.6176 77.111 81.6 95.5585 96.079ZM96.0786 95.5589C104.07 87.437 109 76.2943 109 64C109 51.7364 104.094 40.6187 96.1384 32.5019C81.6179 50.9802 81.5979 77.1178 96.0786 95.5589ZM95.6265 31.9881C77.1528 46.5385 50.882 46.5209 32.4271 31.9352C40.5503 23.9359 51.6987 19 64 19C76.3284 19 87.4989 23.9577 95.6265 31.9881ZM31.9352 32.4271C23.9359 40.5502 19 51.6987 19 64C19 76.3284 23.9577 87.4989 31.9881 95.6265C46.5386 77.1528 46.521 50.8819 31.9352 32.4271Z" fill="url(#paint1_linear_1317_8504)" />
<path fill-rule="evenodd" shape-rendering="geometricPrecision" clip-rule="evenodd" d="M95.5585 96.079C87.4365 104.07 76.294 109 64 109C51.7331 109 40.6125 104.092 32.4952 96.1318C50.9239 81.6176 77.111 81.6 95.5585 96.079ZM96.0786 95.5589C104.07 87.437 109 76.2943 109 64C109 51.7364 104.094 40.6187 96.1384 32.5019C81.6179 50.9802 81.5979 77.1178 96.0786 95.5589ZM95.6265 31.9881C77.1528 46.5385 50.882 46.5209 32.4271 31.9352C40.5503 23.9359 51.6987 19 64 19C76.3284 19 87.4989 23.9577 95.6265 31.9881ZM31.9352 32.4271C23.9359 40.5502 19 51.6987 19 64C19 76.3284 23.9577 87.4989 31.9881 95.6265C46.5386 77.1528 46.521 50.8819 31.9352 32.4271Z" fill="url(#paint2_radial_1317_8504)" />
</g>
<defs>
<filter id="filter0_i_1317_8504" x="0" y="0" width="128" height="128" filterUnits="userSpaceOnUse" color-interpolation-filters="sRGB">
<feFlood flood-opacity="0" result="BackgroundImageFix"/>
<feBlend mode="normal" in="SourceGraphic" in2="BackgroundImageFix" result="shape"/>
<feColorMatrix in="SourceAlpha" type="matrix" values="0 0 0 0 0 0 0 0 0 0 0 0 0 0 0 0 0 0 127 0" result="hardAlpha"/>
<feOffset/>
<feGaussianBlur stdDeviation="5"/>
<feComposite in2="hardAlpha" operator="arithmetic" k2="-1" k3="1"/>
<feColorMatrix type="matrix" values="0 0 0 0 0.300667 0 0 0 0 0 0 0 0 0 0.683333 0 0 0 0.5 0"/>
<feBlend mode="normal" in2="shape" result="effect1_innerShadow_1317_8504"/>
</filter>
<filter id="filter1_d_1317_8504" x="15.4139" y="19" width="97.1722" height="97.1722" filterUnits="userSpaceOnUse" color-interpolation-filters="sRGB">
<feFlood flood-opacity="0" result="BackgroundImageFix"/>
<feColorMatrix in="SourceAlpha" type="matrix" values="0 0 0 0 0 0 0 0 0 0 0 0 0 0 0 0 0 0 127 0" result="hardAlpha"/>
<feOffset dy="3.58611"/>
<feGaussianBlur stdDeviation="1.79306"/>
<feComposite in2="hardAlpha" operator="out"/>
<feColorMatrix type="matrix" values="0 0 0 0 0 0 0 0 0 0 0 0 0 0 0 0 0 0 0.2 0"/>
<feBlend mode="overlay" in2="BackgroundImageFix" result="effect1_dropShadow_1317_8504"/>
<feBlend mode="normal" in="SourceGraphic" in2="effect1_dropShadow_1317_8504" result="shape"/>
</filter>
<radialGradient id="paint0_radial_1317_8504" cx="0" cy="0" r="1" gradientUnits="userSpaceOnUse" gradientTransform="translate(7.48027 11.2281) rotate(44.1095) scale(153.25 152.783)">
<stop stop-color="#8000FF"/>
<stop offset="0.505208" stop-color="#A732D6"/>
<stop offset="1" stop-color="#EF79FF"/>
</radialGradient>
<linearGradient id="paint1_linear_1317_8504" x1="64" y1="19" x2="64" y2="109" gradientUnits="userSpaceOnUse">
<stop stop-color="white"/>
<stop offset="1" stop-color="white" stop-opacity="0.7"/>
</linearGradient>
<radialGradient id="paint2_radial_1317_8504" cx="0" cy="0" r="1" gradientUnits="userSpaceOnUse" gradientTransform="translate(64 64) rotate(90) scale(45)">
<stop offset="0.90625" stop-color="white" stop-opacity="0"/>
<stop offset="1" stop-color="white"/>
</radialGradient>
</defs>
</svg>
